# xmcd
#
# Track frame offsets:
#	150
#	17747
#	31789
#	53787
#	77401
#	97044
#	114389
#	127248
#	143993
#	160085
#	171524
#	186876
#	204178
#	204792
#
# Disc length: 2918 seconds
#
# Revision: 25
# Processed by: cddbd v1.5.2PL0 Copyright (c) Steve Scherf et al.
# Submitted via: EasyCDDAExtractor 16.0.6.1
#
DISCID=b60b640e
DTITLE=Dixie Chicks - C-099 Fly
DYEAR=1999
DGENRE=Country
TTITLE0=Ready To Run
TTITLE1=If I Fall You're Going Down With Me
TTITLE2=Cowboy Take Me Away
TTITLE3=Cold Day In July
TTITLE4=Goodbye Earl
TTITLE5=Hello Mr. Heartache
TTITLE6=Don't Waste Your Heart
TTITLE7=Sin Wagon
TTITLE8=Without You
TTITLE9=Some Days You Gotta Dance
TTITLE10=Hole In My Head
TTITLE11=Heartbreak Town
TTITLE12=Ain't No Thang But A Chickin' Wang {Hideen Track}
TTITLE13=Let Him Fly
EXTD=
EXTT0=
EXTT1=
EXTT2=
EXTT3=
EXTT4=
EXTT5=
EXTT6=
EXTT7=
EXTT8=
EXTT9=
EXTT10=
EXTT11=
EXTT12=
EXTT13=
PLAYORDER=
